# File units = meters
mtllib Real Speed Pad.mtl
g Part 2
v -1.11022e-16 0.342524 0.028 
v -1.11022e-16 0.342524 0.025 
v -0.342524 8.32667e-17 0.025 
v -0.342524 8.32667e-17 0.028 
v 7.60556e-17 -0.342524 0.025 
v 7.60556e-17 -0.342524 0.028 
v 5.07037e-17 -0.228349 0.025 
v 5.07037e-17 -0.228349 0.028 
v -0.228349 -1.38778e-17 0.028 
v -5.55112e-17 0.228349 0.028 
v -0.228349 -1.38778e-17 0.025 
v -5.55112e-17 0.228349 0.025 
vn -0.707107 0.707107 0 
vn -0.707107 -0.707107 0 
vn 1 2.22045e-16 0 
vn 0 0 1 
vn 0 0 -1 
vn 0.707107 0.707107 0 
vn 0.707107 -0.707107 0 
vn 1 2.43097e-16 0 
usemtl 0.647059_0.647059_0.647059_0.000000_0.000000
o mesh0
f 1//1 2//1 3//1 
f 3//1 4//1 1//1 
o mesh1
f 4//2 3//2 5//2 
f 5//2 6//2 4//2 
o mesh2
f 6//3 5//3 7//3 
f 7//3 8//3 6//3 
o mesh3
f 4//4 9//4 10//4 
f 6//4 8//4 9//4 
f 9//4 4//4 6//4 
f 10//4 1//4 4//4 
o mesh4
f 5//5 3//5 11//5 
f 3//5 2//5 12//5 
f 12//5 11//5 3//5 
f 11//5 7//5 5//5 
o mesh5
f 8//6 7//6 11//6 
f 11//6 9//6 8//6 
o mesh6
f 9//7 11//7 12//7 
f 12//7 10//7 9//7 
o mesh7
f 10//8 12//8 2//8 
f 2//8 1//8 10//8 
g Part 3
v 0.273077 0.228349 0.028 
v 0.273077 0.228349 0.025 
v 0.273077 0.343349 0.025 
v 0.273077 0.343349 0.028 
v -0.0911108 -1.66533e-16 0.025 
v -0.0911108 -1.66533e-16 0.028 
v 0.273077 -0.343349 0.025 
v 0.273077 -0.343349 0.028 
v -6.16298e-33 0 0.028 
v 0.273077 -0.228349 0.028 
v -6.16298e-33 0 0.025 
v 0.273077 -0.228349 0.025 
vn 1 4.82706e-16 0 
vn -0.685984 0.727617 0 
vn -0.685984 -0.727617 0 
vn 0 0 1 
vn 0 0 -1 
vn 1 0 0 
vn 0.641486 0.767135 0 
vn 0.641486 -0.767135 0 
usemtl 0.231373_0.380392_0.705882_0.000000_0.000000
o mesh8
f 13//9 14//9 15//9 
f 15//9 16//9 13//9 
o mesh9
f 16//10 15//10 17//10 
f 17//10 18//10 16//10 
o mesh10
f 18//11 17//11 19//11 
f 19//11 20//11 18//11 
o mesh11
f 16//12 18//12 21//12 
f 20//12 22//12 21//12 
f 21//12 18//12 20//12 
f 21//12 13//12 16//12 
o mesh12
f 19//13 17//13 23//13 
f 15//13 14//13 23//13 
f 23//13 17//13 15//13 
f 23//13 24//13 19//13 
o mesh13
f 20//14 19//14 24//14 
f 24//14 22//14 20//14 
o mesh14
f 22//15 24//15 23//15 
f 23//15 21//15 22//15 
o mesh15
f 21//16 23//16 14//16 
f 14//16 13//16 21//16 
g Part 1
v 0.456699 -0.456699 0.025 
v 0.456699 0.456699 0.025 
v -0.456699 0.456699 0.025 
v -0.456699 -0.456699 0.025 
v 0.5 0.5 0 
v 0.5 -0.5 0 
v -0.5 -0.5 0 
v -0.5 0.5 0 
vn 0 0 1 
vn 0.5 1.11022e-16 0.866025 
vn 0 0 -1 
vn 1.11022e-16 -0.5 0.866025 
vn -5.55112e-17 0.5 0.866025 
vn -0.5 -1.11022e-16 0.866025 
usemtl 0.615686_0.811765_0.929412_0.000000_0.000000
o mesh16
f 25//17 26//17 27//17 
f 27//17 28//17 25//17 
o mesh17
f 29//18 26//18 25//18 
f 25//18 30//18 29//18 
o mesh18
f 29//19 30//19 31//19 
f 31//19 32//19 29//19 
o mesh19
f 31//20 30//20 25//20 
f 25//20 28//20 31//20 
o mesh20
f 29//21 32//21 27//21 
f 27//21 26//21 29//21 
o mesh21
f 32//22 31//22 28//22 
f 28//22 27//22 32//22 
